<?xml version="1.0" encoding="UTF-8"?>
<svg id="Calque_1" xmlns="http://www.w3.org/2000/svg" version="1.1" viewBox="0 0 3206.9 1024">
  <!-- Generator: Adobe Illustrator 29.1.0, SVG Export Plug-In . SVG Version: 2.1.0 Build 142)  -->
  <path d="M449.6,153.4c-1.6.4-2.6.7-4,1.4-2.9,1.5-5.2,3.8-7.6,7.7-.5.8-3.3,6.2-6.1,11.9-2.9,5.7-6.2,12.2-7.3,14.5-4.7,9-15.9,31.6-19.5,39.1-5.2,10.9-11.2,23.1-14,28.3-1.1,2.2-11,21.9-11,22s-1,2.1-2.2,4.6-3.4,7-4.9,10.1c-2.4,5-12.1,24.5-21.8,43.7-2,3.9-4.2,8.4-5,10s-2.2,4.6-3.2,6.7c-4.1,8.4-5.7,11.5-7.2,13.9-.4.7-.8,1.2-.7,1.2h1.3c2.5-.3,14.5-.4,31.9-.3h36.2c24.5-.2,46.5-.2,62.2,0,19.3.2,50.3.3,63.4.2,27.9-.3,33.4-.3,36.9,0h.6l-1.8-3.6c-2.7-5.4-7-14.2-8.2-16.9-1.2-2.6-3.1-6.4-7.1-14.4s-4.2-8.5-6-12.3-6.3-12.9-10-20.2-7.7-15.5-9-18.1c-4-8.3-5.8-12.1-8.9-18.2-1.6-3.3-3.9-8-5.2-10.5-1.2-2.5-6.5-13.1-11.7-23.6-9.8-19.8-14.2-28.6-15.6-31.5-1.1-2.3-4-8.4-5.1-10.8-1.1-2.3-2.3-4.7-5-10.4-6.4-13.2-7.2-14.7-9.2-17.3-2.7-3.6-6-5.9-10-6.8-1.6-.4-3.9-.4-5.3,0v-.3h.1Z" fill="currentColor"/>
  <path d="M590.3,383.6s-22.8.1-50.5.2c-27.7,0-60.2.2-72.2.3-17.9.1-25.3.1-41.2,0-12.2-.1-32.4-.2-54.5-.1h-82c-49.2,0-48.3,0-51.5.6-5.8,1-11.8,4.9-16.3,10.5-3.1,3.9-4.9,7.5-5.6,11.5-.2,1-.2,7.7-.3,66.1-.1,144.8-.1,303.2,0,304.7.2,2.9.9,5.5,2.4,8.4,2.4,4.8,5.5,8.3,10.2,11.4,2.8,1.8,5.5,3,8.6,3.6,4.1.8,6.8.9,24.3.7,10.3,0,52.2-.2,147.3-.3h154.5l-.7-1.7c-1.2-3.1-1.8-5-2.2-7.8-.5-3,0-6.7,1.1-9.8.8-2,2.7-5.2,4.5-7.4.9-1.1,1.8-2.4,1.7-2.6,0,0-.6-.5-1.4-1-1.5-1-1.4-.8-1.5-3,0-1.5.2-29.8.3-32.3v-1.8l1-.2c3-.7,7.4-1.2,12-1.3,3.7,0,6.4,0,8.8.5,1,.2,2.2.4,2.6.4h.9l-.4-.2c-.2-.2-1.5-1-2.7-1.8-8.4-5.4-10.4-6.8-13.9-9.6-5.1-4.1-8.7-7.8-14.1-14.6-1.4-1.7-2.6-3.2-2.8-3.3-1.3-.9-4.5-.9-174.1-.9s-137.5,0-139.1-.2c-1.6,0-2.5-.2-2.6-.3s-.2-23.6-.2-108.4v-113h38.5c30.3-.4,45-.4,77.8-.2,25.5.2,36.6.2,52.3,0,11,0,47.7-.1,81.7,0h82c23.1-.1,48.6,0,49.2.3l.4.2v2.8c0,1.5-.2,3.1-.3,3.5v.7h1.1c.7,0,2.4,0,3.8-.2,7.5-.5,14.8-.6,20.3,0,1.6.1,3.2.3,3.5.3h.6v-32.2c0-31.7,0-36.1-.3-43-.2-4.1-.8-7.6-1.8-10.1-1.8-4.7-5.7-9.7-9.9-12.8-3-2.2-7.8-4.6-10.9-5.4-1.8-.5-2.9-.6-6.2-.7-3.2-.1-32.3-.2-32.4,0l.2-.4h0ZM368.9,411.2c5,.2,9.8.5,10.2.8.3.2.4,4,.5,19.5.2,15.5.1,16.7-.4,17.9-.8,1.7-3.2,3.4-5.3,3.8-1.9.4-30.1.2-35-.3-2-.2-3.2-.4-3.4-.7-.3-.3-.7-2.8-.9-4.9-.2-2.4-.2-27,0-28.9s.5-3.5.7-4.2c.3-.7,1.1-1.3,2.2-1.9,2.6-1.3,2.5-1.3,16.1-1.2,6.2,0,13.1.1,15.2.2h0ZM525.2,412.2c4.3.1,7.7.4,8,.6.2.2.4,6.9.5,16.2,0,10.9,0,19-.2,20.5-.4,3-1.2,3.3-10.3,3.5-8.5.2-25.3,0-31.7-.4-2.6-.2-3.2-.2-3.5-.4-.4-.3-.5-2.4-.5-14.5s0-20.8.7-24c0-.6.2-.8.4-.9.6-.2,4.2-.4,9.3-.5,8.9-.1,22.2-.1,27.3,0h0ZM303.6,412.5c.1.2,0,32.3,0,36.1s-.2,3.1-.2,3.2c-.5.4-7.6.7-21.5.7s-23.1-.3-23.5-.6-.4-3.1-.4-19.6,0-17.5.1-18.3v-1.5h.6c.9-.1,44.9,0,45,0h-.1ZM455.5,412.6h.6v1.7c.2,2.7.4,14.1.4,24.3s0,12.2-.4,13.4c-.1.3-.4.5-.9.6-2.6.6-20.7.9-32.2.7-8.2-.2-11.5-.4-12.1-.8-.3-.2-.4-1.7-.6-7.2-.3-9.4,0-24.7.3-29.4.3-3.5.2-3.3.8-3.4.9-.1,43.2,0,43.8.1h.3ZM606.3,412.7c.9,0,1.8.2,1.8.3.2.2.4,2.4.6,5.5.2,3.6,0,25.8,0,28.1-.5,5-1.4,5.6-9.1,5.9-4,.2-22.1,0-26.5-.1-4.4-.2-7.9-.4-8.4-.5-.5,0-.5-.1-.6-.7-.3-2.3-.4-6.5-.4-20.3s0-16.6.4-17.6c0-.3.5-.4,4.2-.6,3-.2,36.1,0,38.1.1h0ZM527.4,730.2c2.8.3,3.9.7,5.2,1.9,1,1,1.4,1.8,1.6,3.4.2,1.4,0,33.2,0,34.8s-.2,1.1-.3,1.3-1.9.2-18,.2-23.8,0-25.2-.4c-1-.2-1.3-.4-1.4-1-.3-1.9-.4-5-.4-16.6s.2-20.7.8-22.2c.3-.8,2.4-1.3,5.8-1.5,3.2-.2,30.4,0,32.1,0h-.2ZM289,730.6c5.3,0,10.2.2,10.7.3,2.4.3,3.6,1.1,4.3,3.1.5,1.4.6,2.7.5,14.4,0,13.8-.3,21.9-.7,22.3s-40.9.2-42.9,0c-.8,0-1.5-.2-1.6-.2,0,0-.1-.8-.2-1.8-.2-2.6-.2-29.1,0-32.1.3-4.7.5-5,2.6-5.5.8-.2,1.5-.3,4.1-.6.5,0,6.6,0,23.1.2h.1ZM439.2,730.5c7.9,0,13.8.2,14.6.3,1.9.2,3,.5,3.2.8.1.2.3,1,.4,1.9.2,1.5.2,2.9.2,16.6s0,15.5-.2,16.9c-.2,2.1-.4,3.6-.5,3.9,0,0-.4.2-.8.3-1.2.2-9.7.3-23.6.4-16.3,0-19.7,0-19.9-.7-.1-.4-.3-2.4-.5-4.3,0-1-.2-7.5-.2-14.4,0-14.6,0-18.9.6-20.3.2-.4.7-.7,2.3-1,2.7-.6,3.9-.6,24.2-.4h.2,0ZM372.2,730.7c4.8.2,5.9.5,7.2,1.8.8.8,1.2,1.7,1.4,3,.2,1.5.2,29,0,32.1-.2,2.8-.3,3-.7,3.1-.6.2-25.6.3-34.4,0-7.2,0-10-.3-10.2-.5s-.3-3.4-.4-18.8c0-14.8,0-16.3.2-17.2.6-2.6,1.7-3.3,6.3-3.7h30.6v.2Z" fill="currentColor"/>
  <path d="M627.7,494.9c-10.2.9-17.7,2.5-24.4,5.1-6.8,2.7-12.3,6.5-16.7,11.7-3.8,4.4-6.5,9.2-8.2,14.8-1.6,5-2.4,9.5-2.4,14s0,1.2.3,1.2,4.5.3,10.9.5c4.3,0,5.5.3,6,.6.7.5,1.2,2.8.9,4.8-.2,1.7-.4,2.5-.8,2.9-.8.7-2.5.9-11.4,1-3.2,0-5.8.2-5.8.2v13.3h6.6c6.9,0,8.6,0,10.1.5s1.6.7,1.9,3.2c.2,2.1,0,4-.7,5.2-.8,1.4-2.1,1.6-12.2,1.7h-5.7v14.4c0,.1,1.1,0,2.3,0s4.1,0,6.4,0c4.8,0,7.2.2,7.9.5.6.2.7.5.9,1.9.3,2,0,4.6-.4,5.5-.3.5-.6.8-1.5,1-1.3.3-5.1.6-12.4.8h-3.2v13h5.1c8.2,0,10.5.2,11.9,1,1.2.7,1.7,1.6,1.7,3.8s0,1.3-.5,2.2c-1,2-1.7,2.6-3.5,2.8-.6,0-4.2,0-8,0h-6.9v13.9c0,20.5,0,22.2,1.8,27.9,1.5,4.5,4.1,9.6,6.6,12.8,3.6,4.6,8.8,8.9,14.1,11.5,3.9,2,8.4,3.3,13.1,4,4.9.7,10.3.9,20,.9,15.1,0,22-.4,27.6-1.6,9.2-1.9,16.8-5.8,23-11.7,1.7-1.7,3.8-4.1,5-5.8,1.9-2.9,3.6-6.7,4.2-9.8.7-3.7.8-6.2.9-25.2v-16.8h-7.5c-7.6,0-8.6-.2-9.3-2-.6-1.6-.6-4.9,0-5.8.2-.4,1.4-.8,2.7-.9,1.4-.2,5.2-.4,10-.5h4.4v-13.1h-1.6c-.8,0-3.7,0-6.4-.2-2.7,0-5.3-.2-5.8-.3-2.1-.3-3-1.1-3.4-3-.2-.8,0-2.8.5-3.6.8-1.6,2.3-1.9,12.3-2h4.7v-15.3s-3,0-6.7,0c-5.5,0-6.8,0-7.5-.3-1.6-.4-2.3-1-3-2.5-.7-1.4-.6-3.5,0-5,.4-.8,1.2-1.7,1.9-2.1,1.4-.7,5-1,11.5-.9h4.1v-6.7c0-3.7,0-6.8-.2-6.9s-3.1,0-6.9-.2c-5.9,0-6.9,0-7.6-.3-1.3-.4-1.9-.8-2.4-2-.7-1.6-.7-2.7,0-4.6.5-1.2.9-1.8,1.6-2.1.6-.3.8-.3,7.8-.3s7.2,0,7.3,0c.2-.2-.4-6.2-.9-9.3-1.6-10.5-4.3-16.2-10.3-22.3-3.2-3.2-6.3-5.3-10.9-7.7-6.2-3.1-13.6-5.2-23.6-6.9-1.8-.3-5.5-.7-7.9-.8-2-.1-10.1-.2-11.4,0v-.2h0Z" fill="currentColor"/>
  <path d="M705.2,631.8v2.8c.6,9.7.8,21.2.3,25-.6,5.1-1.2,8.2-2.5,12.9-2.2,7.6-5.6,15-9.7,21.2-4.7,7-8.9,11.5-14.9,15.7-5.3,3.7-14.6,8.2-20.2,9.7-1.4.4-2.4.2-3-.5-2.6-3.1-4.5-4.6-6.9-5.4-2-.6-2.7-.7-14.5-.7s-13.8,0-15.3,1c-.9.6-3.5,3.2-4.7,4.7l-1,1.2h-.5c-1.4-.4-7.9-3-11.9-5-4.2-2-9.4-5.4-13.4-8.6-3.8-3-7.8-7-10.4-10.2-2.8-3.6-6.2-9-8.1-13.2-3.1-6.8-4.6-12.1-5.9-20.7-.6-4.5-.6-4.4-.6-17.5s0-12.4-.2-12.5-1.5-.2-6.3-.2-6.2,0-6.4.2c-.4.4-.7,3.6-.9,9.5-.4,12.3,1,24.9,4,34.5,2.6,8.4,7.9,18.3,13.8,25.9,4.1,5.3,9.7,10.9,15.2,15.1,5.8,4.5,10,6.9,22,12.4,5,2.3,6.1,2.9,6.8,3.6.9.9,1.1,1.5,1.9,6.4.3,1.5.5,2.9.6,3,0,0,.4.3.7.5.9.4,4.5,1.2,8.3,2l3.4.7v1.3c.2,1.6.2,29.9,0,30h-47.8c-2.2.2-3,.6-4.4,2-3.3,3.4-5,7-5.2,11.1,0,2.2.2,3.7,1,5.3.9,1.8,2.7,4,3.9,4.9,1.6,1.1,2.8,1.4,6.1,1.5,4.2.2,113.2,0,113.9,0,1.2-.3,2.1-.9,3.3-2.1,1.3-1.3,2.1-2.4,3-4.3,1.7-3.3,2.1-6.4,1.2-9.3-.6-2.2-2.1-4.4-4.1-6.1-2.1-1.8-3.8-2.4-8-2.7-1,0-9.4-.2-22.3-.2s-20.7,0-20.8-.2c0,0-.2-2.8-.2-13.5s0-18.5.3-18.7,1.4-.2,3-.2c4.4-.2,5-.4,6-1.9,1.1-1.8,3-5.8,3.9-8.8.6-1.8.8-2.1,2.1-2.5,1.8-.6,6.8-2.5,8.6-3.3,5.4-2.4,12.1-6.3,15.9-9.1,3.9-3,6.3-5,9.9-8.7,5.4-5.4,9.2-10.3,12.6-16.3,4.6-8,8.4-18.5,9.8-27,1-5.9,1.3-9.5,1.5-17.5.2-8.2,0-14.8-.6-17v-.5h-1.3c-.6,0-3.1,0-5.4-.2s-4.7-.2-5.3-.2h-1v.7h.7Z" fill="currentColor"/>
  <path d="M198.3,653.8c-.4.4-1.1,1.8-1.9,3.9-1.2,3-2.4,5.4-6.6,13.9-3.9,7.9-5.7,11.4-10.6,21.5-5,10.1-5.5,11.3-9.5,19.7-2.2,4.8-4.8,10-6.5,13.6-1,2.1-2.7,5.6-3.8,7.9s-5.1,10.3-8.9,18c-12.6,25.3-18.9,38.2-24.8,50.8-1,2-3.6,7.3-5.8,11.7-14.1,28-15.2,30.3-16.3,34.6-.7,2.9-.7,5,0,7.8.9,2.9,2.9,6,5.4,8.4,2.4,2.3,5.1,3.7,8.7,4.4,1.3.3,3.8.3,5.1,0,4.2-.8,5.9-1.3,15.4-4.7,2.6-.9,6-2.1,7.5-2.6,4.6-1.5,16.7-5.6,23.4-7.9,12-4.2,13.9-4.8,21.6-7.3,7.9-2.6,16.3-5.4,23.8-7.9,4.4-1.5,22.6-7.7,33-11.1,3.5-1.2,7.5-2.5,8.8-3,1.3-.5,4.5-1.6,7.1-2.4,6.6-2.1,9.5-3.3,9.8-4,.1-.3,0-.3-.8-.2-4.5.9-7.4,1.1-15.9,1.2-9.5,0-17.3-.3-21.8-1.2-6.2-1.2-11.7-3.7-16.5-7.3-2.1-1.6-2.8-2.2-4.9-4.3-4.6-4.5-7.6-8.6-10.4-13.9-2.3-4.5-3.4-7.6-4.1-11.6-.9-5.2-1-9.5-.8-40,.1-18.5.1-31.6,0-52.8v-29.8c0-.9.2-2.6.3-3.6.1-1.1.2-1.9.2-2,0,0-.2,0-.3.2h0Z" fill="currentColor"/>
  <path d="M723.9,691.5c-.2.4-.7,1.7-1.1,2.8-2.8,7.8-7.2,15.2-13.2,22.5-3.3,4-9.9,10-14.8,13.6-5.7,4.1-11,7.3-23,13.5-4.4,2.3-6.8,3.7-9.9,5.8-3.2,2.2-3.7,2.5-3.8,3.2,0,.2,0,2.9-.2,5.8v5.4h11.6c12.2,0,16.2,0,20,.6,5.6.6,9.1,1.7,12.9,4.1,3.8,2.3,6.9,5.7,8.6,9.2,1.9,3.9,2.9,9.6,2.7,14.9,0,3.2-.5,4.9-2.1,8-1.2,2.4-2.3,3.9-4.1,5.8-2.3,2.4-4.2,3.8-7.5,5.5-4,2.1-7.4,2.8-13.7,3-8.9.3-55.3,0-62.3-.3-1.7,0-3.8-.2-4.6-.2-1.3,0-1.5,0-1.5.3,0,.6,1.3,1.2,7,3.1,1.9.7,4.8,1.7,6.4,2.2s4.2,1.5,5.7,2,4,1.4,5.5,1.9c5.9,2,13.1,4.4,22,7.4,5.1,1.7,11.3,3.7,13.7,4.6,6.1,2,19,6.3,22.9,7.6,1.8.6,5.1,1.6,7.4,2.4,2.3.8,7.1,2.3,10.7,3.5,11.6,3.8,28.9,9.6,37.1,12.5,19.7,6.8,26.4,8.7,30,8.4,4.9-.4,10.3-4,12.9-8.5,1.2-2,2.1-4.6,2.5-6.9.3-1.5,0-2.5-.6-5.1-.9-3-2-5.4-10.3-22.1-6.2-12.5-11.6-23.6-14.3-29-1.5-3.1-3.4-6.9-4.1-8.4-.8-1.5-2.7-5.5-4.4-8.9-1.6-3.4-4.7-9.6-6.8-13.9-4.1-8.2-6.4-12.8-10.1-20.8-1.3-2.7-2.7-5.8-3.2-6.7s-1.6-3.4-2.6-5.5c-2.2-4.8-9.3-19.4-15.6-32-3.6-7.4-4.8-9.9-5.2-10.8-.2-.5-.4-.9-.4-.9,0,0-.2.4-.4.8l.2-.4h0Z" fill="currentColor"/>
  <path d="M610.2,749.9v20.9h.4c.2,0,1.7,0,3.3-.2,1.6,0,3-.2,3.1-.2v-20.7h-6.8v.2Z" fill="currentColor"/>
  <g>
    <path d="M1463.1,401.6c-9.5,1.3-19.3,4.2-26.4,7.8-4,2-6,3.3-9.8,6.2-4.2,3.1-6,5.1-9.8,9.3-7.1,8.4-11.5,16.7-14,26.4-1.8,6.9-2.2,12.2-2.7,23.3,0,4.7-.2,8.4-.4,8.7,0,0-6.4.2-14.2.4-12,0-14,0-14.2.7-.2.4-.2,42.6,0,42.9s4.2,0,9.3-.2,11.5-.4,14.4-.4h5.1v22.4c.2,12.4.4,45.1.4,72.6v50h2c3.3.4,53.5,0,53.7-.4v-71.7c0-39.3,0-71.5.2-71.5,0,0,11.1-.4,24.4-.4s24.4-.2,24.4-.4v-8.9c0-4.9-.2-14.7,0-21.5v-12.7h-.7c-.4,0-11.5-.2-24.4-.4-17.5,0-23.8-.2-24-.4s-.2-2.2-.2-7.1c0-9.3.7-14,2.7-17.3,1.6-2.7,4.7-5.6,8.2-7.5,4.9-2.9,12.9-4,19.1-2.7,5.8,1.1,9.1,2.7,15.3,6.9,2,1.3,3.8,2.4,3.8,2.4,0,0,.7-1.1.9-2.2,1.8-6.4,9.1-27.3,12.7-36.4,1.1-2.4,1.1-2.9.9-3.6-.4-.9-5.6-4.4-10.2-6.7-6.4-3.1-14.4-5.6-22.9-6.9-4-.7-19.3-.9-23.5-.2l-.2-.2v-.3Z" fill="currentColor"/>
    <path d="M2294.7,406.9c-10,0-11.8.2-12,.7,0,.2-.2,3.3,0,8,0,4.2.2,55.3.4,113.5,0,58.2.4,114.1.4,124.3v18.4h55.1v-50c0-46.4,0-50,.4-53.1,1.8-11.1,5.1-19.5,10.4-26.4,3.6-4.2,8.7-8.9,12.9-11.1,6.9-3.8,15.5-5.8,23.8-4.9,6.2.7,9.3,1.3,14,3.8,12,6,18.4,14.4,20.4,26.6,1.3,8.4,1.6,15.3,1.8,67.7v47.7h1.1c1.1,0,9.8,0,35.3-.2,10.4,0,19.1-.2,19.3-.4.4-.4.2-106.4,0-114.1-.9-18.9-3.1-28.4-8.9-40-3.6-6.9-7.5-12.4-13.5-18.2-4.2-4.2-6.7-6.2-10.9-8.9-11.3-7.3-25.5-11.8-41.7-12.7-10.7-.7-19.5.2-29.1,2.9-7.1,2-15.1,5.3-19.8,8.4-2.7,1.8-6.9,5.1-9.8,7.5-1.1.9-2.7,2-3.6,2.7l-1.6.9v-1.6c.4-1.6.7-88.2.4-89.7s-.2-.9-1.1-.9c-1.3-.2-30.9-.4-44,0v-1.1l.3.2Z" fill="currentColor"/>
    <path d="M944.4,420.9c-2,0-2,.2-3.1,2.4-.4.9-1.6,3.6-2.9,6-2.4,5.1-6.2,13.8-9.3,21.1-1.1,2.7-3.3,7.5-4.9,11.1s-3.6,8-4.4,10c-3.6,8.2-10,22.4-13.1,29.3-6,13.1-8.2,18-8.9,19.5-.4.9-1.3,3.1-2.2,5.1s-2.7,6-4,9.1c-2.9,6.7-7.3,16.7-11.3,25.3-1.6,3.6-5.3,11.8-8.2,18.4-5.1,11.3-7.8,17.1-13.5,30.2-2.7,5.8-9.5,21.1-9.5,21.1,0,.4-10.9,24.4-14.7,32.6-2.9,6.2-3.8,8.2-4.4,9.5-.2.7,0,.7,27.8.4,15.3,0,28.6,0,29.5-.2.9,0,2-.4,2.2-.7.9-.4,2-3.1,6-12.7,2.9-7.3,5.6-13.1,11.8-27.3,1.8-3.8,3.3-8,3.8-8.9,1.1-2.9,1.8-4,2.2-4h41.5c44.2,0,70.8,0,72.2.7.9.4,0-1.1,8.4,19.5,10,24.9,12.2,30.2,13.8,32.4l.7,1.1h30.9c16.9,0,30.9-.2,30.9-.2,0,0-2.7-6.4-5.1-11.3-2.7-5.8-9.5-20.9-14-30.9-1.3-2.9-4.2-9.8-6.7-15.1-2.4-5.3-7.3-16.4-10.7-24.4-8-18.2-18.4-41.5-26-57.7-3.3-7.1-10.9-23.8-15.1-33.3-1.3-3.1-3.6-8-5.1-11.1-8.9-19.5-10.9-23.8-13.3-28.9-1.6-3.1-4.4-9.3-6.2-13.8s-4.9-10.9-6.7-14.7-3.3-7.1-3.6-7.8c-1.1-2.4,1.6-2.2-27.3-2.2h-27.3l-.2.4ZM971.9,484.9c1.3,4,3.1,8.4,6.4,15.8,6.7,14.4,16.2,36.6,22.2,51.1,1.6,4,4.2,10,5.6,13.1,3.1,7.1,3.8,8.9,3.3,9.1-.4.4-69.3,1.1-74.4.7-2,0-2.2-.2-2.2-.7,0-.9,1.3-4.7,4.4-12.9,1.6-4,4.2-10.7,5.8-14.9s5.1-13.1,7.8-19.3c6.9-17.1,12-30,14.9-37.3,1.3-3.6,2.7-7.1,3.1-8l.7-1.6.4.7c.2.4,1.1,2.2,1.8,4.2h.2Z" fill="currentColor"/>
    <path d="M2135.9,436.3c-.2.4-.2,4.7,0,21.5,0,11.5.2,22,.2,23.1v2h-10.4c-5.8-.2-12.2-.4-14.2-.7h-4s-.4,1.8-.7,3.8c-.9,6.9-.9,37.3,0,39.7.4,1.1,2.7,1.1,16.4,1.1h13.1v44.6c.2,40.4.4,45.1.9,48.2,1.6,11.8,4.4,20,9.5,27.8,5.1,7.5,10.9,13.3,17.5,17.5,7.5,4.9,19.1,8.7,31.1,10.4,5.8.9,17.3.9,23.3,0,8.2-1.3,14.4-3.1,23.1-6.9,11.1-4.9,12.7-5.8,12.2-7.3,0-.7-1.6-4.2-6.2-14.9-3.6-8-5.6-13.3-6.9-17.5-1.6-4.9-1.8-5.1-2.2-5.1s-2.9.9-8.4,3.6c-4.4,2-8.7,3.3-11.3,3.8-2.4.4-7.1,0-10-.4-5.8-1.3-12.2-7.1-14.4-13.1-1.8-4.4-2.2-9.5-2.4-29.5-.2-16.2-.4-57.1,0-59.1,0-.9.5-1.4,1.6-1.6.7,0,11.5-.2,24.2-.4h22.9v-41.5h-.7c-.4-.4-7.8-.7-22.9-.9-12.2,0-22.2-.2-22.4-.4-.2,0-.4-7.1-.4-23.8s-.2-24-.4-24.4v-.9h-28.6c-24.9,0-28.4,0-28.6.4l-.7.9h-.2Z" fill="currentColor"/>
    <path d="M2635.5,476.7c-7.8.7-17.3,3.1-24.4,6.2-7.8,3.6-11.1,5.6-20.4,12.9-3.3,2.7-6,4.2-6.7,4.2s-.7-.7.7-8c.7-4.2,1.1-7.3,1.1-9.1v-2.7l-6.7-.2h-27.3c-16.7,0-20.7,0-20.9.4,0,.2-.2,39.1,0,95.7v95.3h55.1v-48.6c0-28.2.2-51.1.4-54.8.4-9.8,1.3-13.8,4.2-19.8,2.2-4.7,4-7.1,7.5-10.4,6.2-6,12-9.1,20-10.9,5.6-1.1,14.4-.7,20,1.1,8.4,2.9,16.2,9.8,20.2,17.8,2.4,5.1,3.3,11.3,4,28,.2,10,0,82.2,0,93.5v5.1h7.8c4.4,0,16.7-.2,27.3-.4h19.3v-55.7c0-44.4,0-49.5,1.3-56.8,1.1-6.2,5.6-15.1,10.4-20.4,3.6-4,7.3-6.9,10.7-8.7,5.1-2.7,13.5-4.2,20-4,10.4.7,18.7,4.2,25.3,11.3,5.3,5.6,7.8,10,9.1,16,.7,3.6.9,9.8.9,31.1v87.5h56.4v-56.8c-.2-57.3-.2-59.7-1.3-69.3-2.2-20.7-8.7-35.5-20.4-47.3-9.5-9.8-22.6-16.4-37.5-19.5-8-1.8-17.3-2.7-24.2-2.2-13.5.7-29.3,4.9-40,11.3-5.1,2.9-14.9,11.3-20,17.1-1.1,1.3-2.2,2.2-2.4,2.2s-1.1-1.1-2-2.7c-2.2-3.6-3.8-5.3-7.3-9.1-9.5-9.1-21.5-15.3-35.7-17.8-7.1-1.3-17.8-1.8-25.3-1.1l.9-.2v-.2Z" fill="currentColor"/>
    <path d="M2986.1,477.1c-12.4,1.3-26,4.4-36.2,8.9-15.3,6.4-26.2,14.4-36,26.2-11.5,14-18.7,29.3-22,47.1-2.4,13.8-1.8,26.4,2,42.2,4.2,17.1,14,34,26.2,45.3,12,11.3,23.3,17.8,39.3,23.1,15.1,4.9,30.2,7.1,44.4,6,18.7-1.3,35.3-6,49.7-14.4,3.3-2,11.1-7.3,14.7-10.2,7.1-5.8,15.8-15.5,20.9-23.5,4.7-7.1,8.7-16.7,11.1-26.2,2.7-10.2,3.6-16.4,3.6-24.9,0-20.4-6.2-40-18-56.8-10.2-14.4-25.1-26.6-41.5-33.5-9.8-4.2-20.4-6.9-32.9-8.4-3.6-.4-6.4-.7-13.5-.7h-11.8v-.2ZM3004.5,524c9.8,1.8,18,5.3,25.3,11.3,7.5,6,13.3,16.2,15.1,27.3.7,4.2,1.1,12.2,1.1,16.2-.7,11.1-3.1,20-7.8,27.8-7.3,12-18.2,19.3-33.3,22-3.1.7-10.7.9-14.2.4-11.5-1.3-20.9-5.3-28-12.2-7.3-7.1-11.8-15.8-14.2-28-2-9.8-1.8-17.8.4-26.4,1.6-6.7,4-12,7.3-17.1,4-6,10.2-12.2,15.3-15.3,4.7-2.9,11.1-5.1,17.5-6,3.3-.4,12-.4,15.5.2l-.2-.2h.2Z" fill="currentColor"/>
    <path d="M1216,477.1c-8,.4-19.3,2.4-28.2,5.3-13.1,4.2-25.1,10.7-34,18.7-14,12.7-24.2,30-28.9,48.6-2.7,10.4-2.9,22.4-1.1,34.9,2.7,18.9,10.4,34.9,24.2,50.6,7.5,8.7,20.2,17.3,32.2,22,8.2,3.3,16.4,5.3,26.6,6.9,5.8.9,16.7,1.1,21.8.4,15.8-1.8,29.8-7.5,43.7-17.5,5.6-4,7.1-4.9,8.2-5.1h.9v3.3c-.4,10-2.4,20.9-5.1,28-1.3,3.8-3.8,8.4-5.8,10.9-6.2,8.2-17.3,13.8-32.9,16.7-3.3.7-4.4.7-12.2.7s-9.3,0-14.4-.9c-8.9-1.1-13.1-2-20.4-4.4-9.3-2.9-20.2-7.8-31.3-13.8-1.1-.7-2.2-1.1-2.9-1.3l-1.1-.4-.7,1.3c-.4.9-1.1,2.4-1.6,3.6-3.1,7.5-7.5,17.8-11.8,26.2-2,4-3.8,7.5-3.8,7.8,0,1.1,8.4,6.4,16.4,10.4,18.4,9.1,39.5,14.7,61.1,16.7,5.3.4,24.2,0,29.1-.4,12.2-1.6,26.2-5.1,35.7-9.1,6.9-2.9,15.8-8,21.1-12,13.8-10.4,22.9-22.9,28.4-39.5,3.8-10.9,4.7-16.7,5.8-30.9.9-10.9,1.1-29.8.9-101.9v-70.8h-54s0,2.2.2,4.9.7,7.1.9,10c.2,2.9.4,6,.7,6.9v1.3c-1.1,0-2.7-1.3-6.4-4.9-5.6-5.6-8.7-8-16.2-12-14.7-7.8-29.5-11.1-45.5-10.2l.2-.7.2-.3ZM1240.6,524c11.1,1.8,19.8,6.2,27.3,14,4.2,4,6.4,7.3,8.9,12.7,2.9,6,4,10.4,4.7,18,.7,9.1-.9,16.7-5.3,25.5s-6.2,10.2-8.9,12.7c-6.4,5.8-15.8,10-26.4,12-7.5,1.3-16.4.9-24.9-1.3-11.1-2.9-21.3-10.2-27.5-19.8-5.3-8.2-8.4-19.1-8-28.4.2-5.8,1.6-10.9,4.2-16.9,2-4.7,3.8-7.3,7.8-12,7.3-8.7,18.4-14.2,31.5-16,1.8-.2,3.8-.4,4.2-.7,1.8-.2,10.2,0,12.7.4l-.2-.2h0Z" fill="currentColor"/>
    <path d="M1597.9,477.3c-17.3.7-37.3,5.3-53.3,12.2-3.8,1.8-12.9,6.2-14.4,7.1-.7.5-1,1.1-.9,1.8,0,1.1,1.8,5.1,6.7,16.9,1.8,4,4.2,10.7,5.8,14.9,3.1,8.7,3.8,10.4,4,10.7.2.2,1.8-.7,4.4-2.9,4-3.1,10.2-6.7,16.4-8.9,10.7-4,24.6-7.1,33.1-7.1s17.5,2,24,5.1c4.9,2.2,8.7,5.3,12.4,9.8,4.9,6,6.9,9.8,8.7,17.3.7,2.9.7,3.8-.4,4.2-.9.4-9.8.7-33.3,1.1-19.1.4-27.3.9-38,2.4-14,2-23.5,5.3-32.4,11.1-3.3,2.2-9.5,8.2-12.2,12.2-4.7,6.9-8.7,16-10.2,24-.7,4-.9,12-.2,15.5,2,13.1,9.5,26.4,18.9,34.2s20.4,12.4,35.1,15.3c13.1,2.7,26.9,2.4,39.1-.9,4.4-1.1,7.5-2.2,11.8-4.4,8.4-4.2,13.1-7.5,21.3-15.5,2-2,3.3-3.1,3.6-2.9s0,3.6,0,8.9v12.4h52.8v-46.9c.2-59.7,0-71.1-1.6-81.3-3.3-20.4-11.8-36.4-25.3-47.3-3.8-3.1-5.6-4.2-9.3-6.4-9.5-5.3-20.9-9.1-34-11.1-8-1.3-21.8-1.8-32-1.3l-.4-.2h-.2ZM1639.2,593.2c1.6,0,3.8.7,4.7.9l1.8.4v3.3c-.2,12-6.4,25.8-14.9,33.1s-18.7,8.7-32.4,7.1c-6.7-.9-11.3-2.4-16-6-6.4-4.9-9.3-13.8-7.1-21.8,1.8-7.1,5.1-11.8,10-14.2,3.3-1.8,8.2-2.7,16.7-2.9,7.3-.2,33.8,0,37.3.2v-.2h0Z" fill="currentColor"/>
    <path d="M1864.8,477.3c-12.4.4-21.1,2.4-30.4,7.1-7.5,3.8-12,6.9-19.3,14-4.9,4.9-8.2,7.5-8.9,7.5s-.2-.9,0-2.9c.4-7.8.7-12.2.9-17.3v-5.6l-1.6-.2c-1.6,0-51.5-.2-51.7,0-.4.4-.4,191.2,0,192.1,0,.2,7.8.2,28.2,0h28v-42.9c0-50.2,0-53.7,2-62,1.6-7.1,5.3-14.9,9.8-21.1s8-8.7,10.4-10.4c4.4-2.9,8.9-4.7,14.9-6,5.8-1.1,9.5-1.3,18.9-1.3h8.7v-50.6h-9.8v-.4h0Z" fill="currentColor"/>
    <path d="M1883,479.8c0,.7,2,5.6,4.4,10.9,1.1,2.4,4.4,10,7.3,16.9,2.9,6.9,6,13.5,6.7,15.1.7,1.3,3.3,7.3,6,13.5,4.4,10.2,13.8,31.3,22,49.5,2,4.4,4.2,9.5,5.1,11.5s2.4,5.3,3.3,7.3,2.4,5.6,3.6,8c6,14,11.1,26,14,32.2,1.3,2.9,4.2,9.3,6.4,14,6,13.3,7.5,17.1,7.5,18.9s-2,5.3-4.7,8.7c-4.9,6.4-12,12-17.5,13.5-2.4.7-10.2.7-14.2,0-7.5-1.3-12-2.7-21.1-6.9-4.4-2-6.2-2.7-6.7-2.7s-.9.4-6.4,12.4c-1.8,3.6-4.4,9.3-6.2,12.9-3.6,7.1-5.1,10.7-5.1,11.8s.2,1.1.9,1.8c1.1,1.1,5.8,4.2,9.1,6,8.9,4.9,25.1,10,35.1,11.1,3.3.4,10.4.4,14.2,0,8.4-.9,18.2-3.3,25.5-6.7,10.4-4.7,21.8-13.3,29.1-22.2,8-9.8,14.2-22,24.9-48.2,5.1-12.7,11.1-26.9,12.4-30.2.9-2,4-9.5,6.9-16.7,6.7-16.2,8-19.1,12.2-28.6,1.8-4.2,5.3-12.2,7.8-18,2.4-5.6,4.9-11.5,5.8-13.1,3.1-7.1,12.9-29.1,16.7-37.7,4-9.1,7.1-16.9,11.1-27.5,4.2-10.9,5.1-12.9,6.9-14.9.9-.9,1.1-1.3.9-1.6-.9-.4-37.5-1.3-47.1-1.1-3.6,0-6.4.2-6.9.4-.9.4-6.2,12.2-14.4,31.3-1.1,2.9-4,9.5-6.2,14.9s-5.3,12.7-6.7,16-4.7,10.9-7.1,16.4c-10,23.3-14.2,33.5-17.5,42.6-1.8,4.7-3.8,8.9-4.2,8.9s-.7-.9-1.3-2.4c-4-9.8-16.7-40.9-20.7-50.4-2.2-5.1-5.6-13.1-7.5-17.8-2-4.7-4-9.5-4.4-10.9s-3.3-8.2-6.4-15.1c-7.8-18.7-14.7-34-15.5-34.9-.9-.7-7.3-.9-33.8-.9s-24,0-24,.7v1.1l-.2.2Z" fill="currentColor"/>
  </g>
</svg>